<svg xmlns="http://www.w3.org/2000/svg" width="200" height="52" viewBox="0 0 200 52" fill="none"><g clip-path="url(#clip0_519_1000)"><path d="M2.31248 23.9091V14.2947H0V11.5803H2.31248V10.7432C2.31248 7.39461 4.54955 5.84717 7.03797 5.84717C8.11881 5.84717 9.24991 6.20232 10.2553 6.86188L9.12423 9.17037C8.47071 8.73911 7.86745 8.5108 7.23906 8.5108C6.18336 8.5108 5.37902 9.2211 5.37902 10.7432V11.5803H9.02369V14.2947H5.37902V23.9091H2.31248Z" fill="#171B1D"></path><path d="M14.5283 7.8768C14.5283 10.2868 10.9088 10.2868 10.9088 7.8768C10.9088 5.46685 14.5283 5.46685 14.5283 7.8768ZM11.1853 11.3522V23.9093H14.2519V11.3522H11.1853Z" fill="#171B1D"></path><path d="M26.141 23.909V17.3641C26.141 15.4615 25.1105 14.0155 23.1499 14.0155C21.1893 14.0155 19.9828 15.6137 19.9828 17.5163V23.909H16.9414V11.3773H19.6812L19.8823 13.0769C21.1391 11.8339 22.3958 11.1997 23.9542 11.1997C26.87 11.1997 29.2076 13.4067 29.2076 17.3387V23.909H26.141Z" fill="#171B1D"></path><path d="M41.6749 11.4028H44.6158V23.9092H41.7252L41.5744 22.0827C40.8706 23.554 38.9351 24.2643 37.5527 24.2897C33.8829 24.315 31.1682 22.0319 31.1682 17.6433C31.1682 13.2546 34.0085 11.073 37.6281 11.0984C39.287 11.0984 40.8706 11.8848 41.5744 13.1278L41.6749 11.4028ZM34.2348 17.6433C34.2348 20.0279 35.8686 21.4485 37.9046 21.4485C42.7306 21.4485 42.7306 13.8635 37.9046 13.8635C35.8686 13.8635 34.2348 15.2587 34.2348 17.6433Z" fill="#171B1D"></path><path d="M56.3289 23.909V17.3641C56.3289 15.4615 55.2984 14.0155 53.3378 14.0155C51.3772 14.0155 50.1707 15.6137 50.1707 17.5163V23.909H47.1293V11.3773H49.8691L50.0701 13.0769C51.3269 11.8339 52.5837 11.1997 54.1421 11.1997C57.0578 11.1997 59.3955 13.4067 59.3955 17.3387V23.909H56.3289Z" fill="#171B1D"></path><path d="M72.6671 22.3107C71.2344 23.7313 69.7262 24.2894 67.8913 24.2894C64.2969 24.2894 61.3058 22.1078 61.3058 17.6684C61.3058 13.229 64.2969 11.0474 67.8913 11.0474C69.6508 11.0474 71.0081 11.5547 72.3655 12.8992L70.43 14.954C69.7011 14.2945 68.7962 13.9647 67.9416 13.9647C65.8805 13.9647 64.3723 15.4867 64.3723 17.6684C64.3723 20.053 65.981 21.3214 67.8913 21.3214C68.8716 21.3214 69.8519 21.0423 70.606 20.2813L72.6671 22.3107Z" fill="#171B1D"></path><path d="M77.1412 18.7597C77.3423 20.3071 78.6745 21.4233 80.8361 21.4233C81.9673 21.4233 83.4503 20.9921 84.1541 20.2564L86.1146 22.2097C84.8076 23.5796 82.671 24.2391 80.7859 24.2391C76.5128 24.2391 73.9741 21.5755 73.9741 17.5674C73.9741 13.5593 76.538 11.0225 80.5597 11.0225C84.5814 11.0225 87.296 13.61 86.8184 18.7597H77.1412ZM83.8776 16.1975C83.6765 14.574 82.4197 13.7622 80.6602 13.7622C79.0012 13.7622 77.6439 14.574 77.1915 16.1975H83.8776Z" fill="#171B1D"></path><path d="M200 48.6472C200 50.4991 198.513 52 196.678 52C194.843 52 193.356 50.4991 193.356 48.6472C193.356 46.7954 194.843 45.2944 196.678 45.2944C198.513 45.2944 200 46.7954 200 48.6472Z" fill="#ED1697"></path><path d="M119.051 31.9887C119.051 36.927 115.083 40.9267 110.195 40.9267C105.306 40.9267 101.338 36.9228 101.338 31.9887C101.338 27.0547 105.306 23.0508 110.195 23.0508C115.083 23.0508 119.051 27.0547 119.051 31.9887Z" fill="#5FBFF9"></path><path d="M196.351 6.64623C198.148 6.64623 199.606 5.17489 199.606 3.36109C199.606 1.54728 198.148 0.0759429 196.351 0.0759429H180.432L164.567 16.0873C164.399 16.2564 164.257 16.4425 164.131 16.6327C163.419 17.2331 162.745 17.8842 162.12 18.5776C163.516 20.5479 164.58 22.6957 165.292 24.9576C167.655 21.0129 171.94 18.3747 176.842 18.3747C184.29 18.3747 190.327 24.4672 190.327 31.9846C190.327 39.5019 184.29 45.5944 176.842 45.5944C169.393 45.5944 163.356 39.5019 163.356 31.9846C163.356 31.8408 163.348 31.6971 163.344 31.5533C163.344 31.4265 163.34 31.3039 163.335 31.177C163.327 31.0121 163.319 30.8472 163.31 30.6866C163.302 30.547 163.289 30.4075 163.277 30.2638C163.264 30.12 163.252 29.972 163.239 29.8283C163.21 29.5662 163.176 29.304 163.138 29.0419C163.122 28.932 163.105 28.8263 163.088 28.7163C163.055 28.5134 163.021 28.3147 162.983 28.1159C162.967 28.0272 162.95 27.9341 162.929 27.8454C162.808 27.2492 162.657 26.6615 162.477 26.0823C162.464 26.0485 162.456 26.0104 162.443 25.9766C161.915 24.2727 161.161 22.6449 160.189 21.1271C160.189 21.1271 160.189 21.1313 160.185 21.1355C156.817 15.8802 151.082 12.3202 144.496 11.9989L151.153 5.43703C152.385 4.194 152.385 2.17725 151.153 0.934224C149.921 -0.308804 147.923 -0.308804 146.691 0.934224L130.404 16.9879C129.897 17.4403 129.411 17.918 128.954 18.4169L128.719 18.6495C128.564 18.8059 128.426 18.975 128.313 19.1568C127.794 19.7868 127.312 20.4464 126.868 21.1355C123.533 15.9309 117.869 12.3878 111.363 12.0115L117.605 5.85983C117.702 5.76258 117.785 5.66111 117.869 5.55541L123.458 0.122451H96.9061C95.2136 0.122451 93.8438 1.505 93.8438 3.21311C93.8438 4.65062 94.8199 5.85983 96.1395 6.2023H108.234L95.1843 19.0638C93.9527 20.3069 93.9527 22.3236 95.1843 23.5666C96.416 24.8097 98.4142 24.8097 99.6459 23.5666L102.214 21.0383C104.455 19.364 107.224 18.3747 110.224 18.3747C117.66 18.3747 123.688 24.4503 123.709 31.9507C123.709 31.9634 123.709 31.9719 123.709 31.9846C123.709 31.993 123.709 32.0015 123.709 32.0099C123.709 32.327 123.692 32.6399 123.671 32.9485C123.847 36.5085 124.941 39.8951 126.864 42.8674C126.868 42.8589 126.876 42.8463 126.88 42.8378C130.412 48.3469 136.549 51.9998 143.537 51.9998C149.385 51.9998 154.643 49.4419 158.275 45.3746C156.876 43.4086 155.807 41.2692 155.087 39.0115C152.724 42.9562 148.438 45.5944 143.537 45.5944C136.088 45.5944 130.052 39.5019 130.052 31.9888C130.052 24.4757 136.088 18.3831 143.537 18.3831C150.985 18.3831 157.01 24.4672 157.022 31.9719C157.022 31.9761 157.022 31.9846 157.022 31.9888C157.022 31.993 157.022 32.0015 157.022 32.0057C157.022 32.1199 157.018 32.2298 157.014 32.3439C157.047 33.9041 157.253 35.4346 157.63 36.9144C157.638 36.9567 157.651 36.9947 157.659 37.037C157.73 37.316 157.81 37.5951 157.894 37.8699C157.927 37.9798 157.965 38.0855 157.998 38.1912C158.044 38.335 158.09 38.4787 158.141 38.6183C158.195 38.7789 158.254 38.9438 158.317 39.1003C158.329 39.1341 158.346 39.1721 158.359 39.206C161.228 46.6895 168.425 51.9998 176.854 51.9998C187.805 51.9998 196.686 43.0407 196.686 31.9846C196.686 20.9284 188.333 12.5147 177.839 11.9946L183.138 6.64623H196.359H196.351Z" fill="#171B1D"></path><path d="M110.22 45.5985C102.96 45.5985 97.0444 39.8104 96.7512 32.5552H90.4044C90.7019 43.345 99.4574 51.9997 110.22 51.9997C116.055 51.9997 121.3 49.4544 124.928 45.4083C123.533 43.4507 122.461 41.3198 121.736 39.0705C119.369 42.9856 115.096 45.5985 110.22 45.5985Z" fill="#171B1D"></path></g><defs><clipPath id="clip0_519_1000"><rect width="200" height="52" fill="white"></rect></clipPath></defs></svg>