<svg width="1251" height="173" viewBox="0 0 1251 173" fill="none" xmlns="http://www.w3.org/2000/svg">
<path d="M33.6966 39.4685V73.1305H62.7315C64.7959 73.0678 66.8273 72.5959 68.7077 71.7424C70.5881 70.8888 72.28 69.6706 73.6852 68.1584C75.0903 66.6463 76.1808 64.8703 76.8932 62.9336C77.6055 60.997 77.9257 58.9382 77.835 56.8769C78.0178 54.7951 77.7617 52.6982 77.0831 50.7214C76.4046 48.7447 75.3186 46.932 73.8954 45.4004C72.4722 43.8688 70.7433 42.6524 68.8204 41.8295C66.8975 41.0067 64.8232 40.5958 62.7315 40.6233L33.6966 39.4685ZM0 171.796V5.82251H66.2318C95.2667 5.82251 113.871 26.717 113.871 55.7382C114.211 61.9772 113.012 68.2042 110.378 73.8716C107.744 79.5389 103.757 84.4731 98.767 88.24C104.189 92.0165 108.609 97.0547 111.646 102.919C114.683 108.784 116.246 115.299 116.199 121.902C116.28 128.382 115.081 134.815 112.671 140.832C110.261 146.849 106.688 152.332 102.155 156.968C97.6221 161.604 92.2187 165.302 86.2539 167.85C80.2892 170.398 73.8801 171.746 67.3932 171.818L0 171.796ZM33.6966 105.632V139.294H62.7315C64.8831 139.349 67.0233 138.966 69.0222 138.169C71.0211 137.372 72.837 136.177 74.3596 134.658C75.8822 133.138 77.0798 131.325 77.8797 129.329C78.6795 127.333 79.065 125.196 79.0125 123.046C79.1606 118.584 77.5317 114.245 74.4828 110.981C71.4339 107.717 67.2138 105.793 62.7476 105.632H33.6966ZM278.88 171.796H245.173V5.82251H278.869L278.88 171.796ZM515.923 171.796H404.365C424.119 127.687 443.873 82.4175 464.789 38.3083H413.661V5.8064H514.746C494.991 49.9157 475.237 94.025 454.321 138.134H515.907V171.796H515.923ZM749.471 44.0878C740.676 38.9941 730.588 36.5679 720.436 37.1051C654.204 37.1051 654.204 138.086 720.436 138.086C731.602 137.637 742.607 135.275 752.971 131.103L757.606 166.017C746.169 170.669 733.931 173.041 721.581 172.999C608.872 172.999 608.872 4.6838 721.581 4.6838C732.816 4.52153 743.94 6.90909 754.117 11.6665L749.471 44.1684V44.0878ZM869.143 171.796L938.859 0H942.343L1012.06 171.796H974.879L969.066 154.382H914.47L907.48 171.796H869.143ZM926.089 123.046H956.302L941.193 80.0756L926.089 123.046ZM1171.27 171.802H1137.58V5.82788H1202.64C1267.7 5.82788 1266.54 107.974 1202.64 107.974H1170.1V171.818L1171.27 171.802ZM1171.27 76.6165H1200.31C1222.38 76.6165 1222.38 39.4738 1200.31 39.4738H1171.27V76.6165Z" fill="white"/>
</svg>
