<svg xmlns="http://www.w3.org/2000/svg" width="168" height="64" viewBox="0 0 168 64" fill="none"><g clip-path="url(#clip0_695_38)"><path d="M95.2963 37.8949C49.3351 37.8949 12.0734 31.8955 12.0734 24.4721C12.0734 21.3016 18.8965 18.3778 30.3062 16.0806C15.0301 18.8145 5.51562 22.6495 5.51562 26.9023C5.51562 35.161 41.4696 41.8628 85.8387 41.8628C118.305 41.8628 146.28 38.2746 158.941 33.1105C143.683 36.0343 120.826 37.8949 95.2963 37.8949Z" fill="#B9D532"></path><path d="M50.5287 27.7947C48.804 28.8199 47.0224 29.5794 45.2219 30.073C43.4024 30.5666 41.5071 30.8134 39.517 30.8134C37.2616 30.8134 35.1957 30.4527 33.3004 29.7502C31.4051 29.0478 29.7562 28.0036 28.3536 26.6176C26.8942 25.1937 25.795 23.504 25.0368 21.5865C24.2787 19.6689 23.8997 17.6185 23.8997 15.4162C23.8997 10.7837 25.397 7.06259 28.3726 4.23376C31.3482 1.42391 35.2905 0 40.1804 0C41.943 0 43.6488 0.189855 45.3166 0.588549C46.9845 0.987244 48.6334 1.59478 50.2634 2.41115V9.3978C48.6903 8.33462 47.0793 7.55621 45.4872 7.02462C43.8762 6.49303 42.2841 6.24622 40.6731 6.24622C37.7733 6.24622 35.48 7.06259 33.8121 8.69534C32.1443 10.3281 31.3103 12.5684 31.3103 15.4352C31.3103 18.2071 32.1063 20.4284 33.6984 22.0991C35.2905 23.7508 37.4322 24.5862 40.1235 24.5862C41.8482 24.5862 43.5919 24.2634 45.3356 23.6369C47.0793 23.0104 48.823 22.0801 50.5477 20.846V27.7947H50.5287Z" fill="white"></path><path d="M64.876 28.4211C63.9473 29.1806 62.9996 29.7501 61.9951 30.1298C60.9906 30.4906 59.9292 30.6804 58.792 30.6804C56.9157 30.6804 55.4942 30.2058 54.5276 29.2565C53.561 28.3072 53.0872 26.9213 53.0872 25.0607C53.0872 23.4469 53.7884 22.118 55.2099 21.0738C56.6314 20.0296 59.7397 18.7955 64.5538 17.3526C64.5727 17.2767 64.5727 17.2007 64.5917 17.1248C64.5917 17.0488 64.6106 16.9349 64.6106 16.7831C64.6106 15.8148 64.3074 15.1123 63.663 14.6377C63.0375 14.182 62.0709 13.9542 60.7631 13.9542C59.6639 13.9542 58.5456 14.239 57.3895 14.7896C56.2334 15.3402 55.1151 16.1375 54.0159 17.2007L54.0917 12.1696C55.2668 11.3532 56.5745 10.7267 57.996 10.328C59.4175 9.9293 61.0095 9.72046 62.7722 9.72046C65.5772 9.72046 67.6242 10.29 68.894 11.4102C70.1639 12.5303 70.7893 14.3339 70.7893 16.802V24.8329C70.7893 25.3075 70.8462 25.6303 70.9788 25.8201C71.1115 26.01 71.301 26.1049 71.6043 26.1049C71.8696 26.1049 72.135 26.0669 72.4193 25.991C72.7036 25.9151 73.0826 25.7822 73.5375 25.5923V29.1236C72.4193 29.6742 71.4337 30.0729 70.5808 30.3387C69.7279 30.5855 68.913 30.7184 68.1359 30.7184C67.1693 30.7184 66.3922 30.5285 65.8426 30.1488C65.2929 29.7311 64.9707 29.1616 64.876 28.4211ZM64.5727 25.4594V20.5232C62.4689 21.2826 61.0664 21.9661 60.3651 22.5356C59.6639 23.1052 59.3038 23.7887 59.3038 24.5861C59.3038 25.2316 59.4933 25.7632 59.8724 26.1429C60.2514 26.5226 60.7821 26.7124 61.4644 26.7124C61.9193 26.7124 62.4121 26.5985 62.9238 26.3897C63.4355 26.1809 63.9852 25.8581 64.5727 25.4594Z" fill="white"></path><path d="M76.2295 40.1732V10.1002H82.1239V11.771C82.9389 11.0495 83.8107 10.5179 84.7205 10.1762C85.6302 9.83444 86.6347 9.66357 87.753 9.66357C90.4822 9.66357 92.6997 10.6318 94.4055 12.5873C96.1113 14.5428 96.9641 17.0869 96.9641 20.2195C96.9641 23.3331 96.1113 25.8772 94.4055 27.8137C92.6997 29.7502 90.4822 30.7185 87.753 30.7185C86.6916 30.7185 85.706 30.5666 84.8152 30.2438C83.9244 29.94 83.1095 29.4464 82.3703 28.8009V40.1922H76.2295V40.1732ZM82.3324 15.8149V24.4532C82.8631 24.8709 83.3937 25.1747 83.9623 25.3835C84.5309 25.5924 85.0995 25.7063 85.6871 25.7063C87.2033 25.7063 88.3784 25.2127 89.2502 24.2254C90.1221 23.2382 90.5391 21.8902 90.5391 20.1815C90.5391 18.4918 90.1031 17.1249 89.2502 16.0996C88.3974 15.0744 87.2602 14.5618 85.8576 14.5618C85.2511 14.5618 84.6636 14.6568 84.0571 14.8656C83.5075 15.0744 82.9199 15.3782 82.3324 15.8149Z" fill="white"></path><path d="M106.63 10.1003H100.47V30.2819H106.63V10.1003Z" fill="white"></path><path d="M113.567 30.2817V14.4288H110.781V10.1001H113.567V7.87881C113.567 5.2778 114.23 3.34128 115.595 2.08824C116.941 0.816218 118.988 0.189697 121.717 0.189697C122.153 0.189697 122.627 0.227668 123.138 0.284625C123.65 0.341581 124.238 0.417523 124.882 0.531436V5.39172C124.427 5.29679 124.029 5.22085 123.65 5.18288C123.29 5.1449 122.949 5.12592 122.627 5.12592C121.584 5.12592 120.845 5.42969 120.39 6.03722C119.935 6.64476 119.727 7.68896 119.727 9.20779V10.1571H122.304V14.4288H119.727V30.2817H113.567Z" fill="white"></path><path d="M132.311 40.1733H125.886L131.667 27.0544L124.237 10.1003H130.814L134.775 19.9538L138.983 10.1003H145.483L132.311 40.1733Z" fill="white"></path><path d="M100.072 3.24654C100.072 2.3922 100.394 1.65176 101.019 1.06322C101.645 0.474666 102.422 0.170898 103.313 0.170898C104.222 0.170898 105 0.474666 105.625 1.06322C106.25 1.65176 106.554 2.3922 106.554 3.26553C106.554 4.11987 106.25 4.84132 105.625 5.44886C105 6.03741 104.241 6.34117 103.313 6.34117C102.403 6.34117 101.645 6.03741 101.019 5.44886C100.375 4.82234 100.072 4.10089 100.072 3.24654Z" fill="#B9D532"></path><path d="M0 52.7036H3.27888C5.26895 52.7036 6.40614 53.444 6.40614 54.9249C6.40614 56.14 5.64801 56.7855 4.71931 56.9753V56.9943C5.83754 57.2032 6.70939 57.8487 6.70939 59.1587C6.70939 60.6395 5.5722 61.5698 3.54422 61.5698H0V52.7036ZM3.18412 56.5767C4.54874 56.5767 5.34476 56.102 5.34476 55.0958C5.34476 54.0706 4.68141 53.6529 3.20307 53.6529H1.08032V56.5956H3.18412V56.5767ZM3.46841 60.6395C4.9657 60.6395 5.62906 60.089 5.62906 59.0638C5.62906 57.9436 4.71931 57.469 3.24097 57.469H1.08032V60.6395H3.46841Z" fill="white"></path><path d="M7.99829 59.8043V55.2478H9.05966V59.5955C9.05966 60.4308 9.43872 60.8295 10.2537 60.8295C11.0497 60.8295 11.6941 60.4308 12.3765 59.8043V55.2478H13.4568V61.57H12.3765V60.6207C11.8079 61.1523 10.9929 61.6839 9.9315 61.6839C8.6806 61.6839 7.99829 61.0004 7.99829 59.8043Z" fill="white"></path><path d="M14.5562 60.6018L15.2006 59.9753C15.6933 60.4879 16.3567 60.8486 17.2475 60.8486C18.252 60.8486 18.8206 60.5069 18.8206 59.8614C18.8206 59.2348 18.252 58.988 17.1338 58.7412C15.7502 58.4185 14.8025 58.0577 14.8025 56.8427C14.8025 55.8934 15.6744 55.115 17.0959 55.115C18.252 55.115 18.9912 55.4757 19.5977 56.0263L19.048 56.7098C18.5553 56.2731 17.8919 55.9503 17.1527 55.9503C16.2051 55.9503 15.826 56.349 15.826 56.8047C15.826 57.3932 16.3377 57.6021 17.3802 57.8299C18.8585 58.1716 19.863 58.5324 19.863 59.8234C19.863 61.0385 18.7448 61.684 17.2475 61.684C16.0345 61.684 15.0868 61.2283 14.5562 60.6018Z" fill="white"></path><path d="M21.0947 52.8745H22.213V53.8807H21.0947V52.8745ZM21.1137 55.2477H22.1751V61.5698H21.1137V55.2477Z" fill="white"></path><path d="M23.824 55.2479H24.9043V56.1972C25.4729 55.6656 26.2879 55.115 27.3492 55.115C28.6002 55.115 29.2825 55.8175 29.2825 57.0135V61.57H28.2211V57.2414C28.2211 56.406 27.842 56.0073 27.027 56.0073C26.25 56.0073 25.5866 56.406 24.9043 57.0325V61.589H23.824V55.2479Z" fill="white"></path><path d="M30.4009 58.3994C30.4009 56.1022 31.9929 55.0959 33.3576 55.0959C34.9117 55.0959 36.0868 56.1591 36.0868 58.4374V58.6462H31.4623C31.5002 60.0701 32.353 60.8296 33.4334 60.8296C34.381 60.8296 34.9117 60.4498 35.4045 59.8043L36.011 60.3549C35.4045 61.1903 34.5706 61.7029 33.3576 61.7029C31.8224 61.7029 30.4009 60.6017 30.4009 58.3994ZM35.0633 57.8678C34.9686 56.7477 34.4189 55.9693 33.3386 55.9693C32.4668 55.9693 31.6328 56.5578 31.4812 57.8678H35.0633Z" fill="white"></path><path d="M36.7124 60.6018L37.3568 59.9753C37.8496 60.4879 38.5129 60.8486 39.4037 60.8486C40.4082 60.8486 40.9768 60.5069 40.9768 59.8614C40.9768 59.2348 40.4082 58.988 39.29 58.7412C37.9064 58.4185 36.9588 58.0577 36.9588 56.8427C36.9588 55.8934 37.8306 55.115 39.2521 55.115C40.4082 55.115 41.1474 55.4757 41.7539 56.0263L41.2043 56.7098C40.7115 56.2731 40.0481 55.9503 39.309 55.9503C38.3613 55.9503 37.9823 56.349 37.9823 56.8047C37.9823 57.3932 38.494 57.6021 39.5364 57.8299C41.0147 58.1716 42.0193 58.5324 42.0193 59.8234C42.0193 61.0385 40.901 61.684 39.4037 61.684C38.2097 61.684 37.2431 61.2283 36.7124 60.6018Z" fill="white"></path><path d="M42.6064 60.6018L43.2509 59.9753C43.7436 60.4879 44.407 60.8486 45.2978 60.8486C46.3023 60.8486 46.8709 60.5069 46.8709 59.8614C46.8709 59.2348 46.3023 58.988 45.1841 58.7412C43.8005 58.4185 42.8528 58.0577 42.8528 56.8427C42.8528 55.8934 43.7247 55.115 45.1462 55.115C46.3023 55.115 47.0415 55.4757 47.648 56.0263L47.0983 56.7098C46.6056 56.2731 45.9422 55.9503 45.203 55.9503C44.2554 55.9503 43.8763 56.349 43.8763 56.8047C43.8763 57.3932 44.388 57.6021 45.4305 57.8299C46.9088 58.1716 47.9133 58.5324 47.9133 59.8234C47.9133 61.0385 46.7951 61.684 45.2978 61.684C44.1037 61.684 43.1371 61.2283 42.6064 60.6018Z" fill="white"></path><path d="M51.8745 52.7036H57.3709V53.6719H52.9738V56.5197H56.2148V57.469H52.9738V61.5698H51.8935V52.7036H51.8745Z" fill="white"></path><path d="M57.6172 59.8043V55.2478H58.6786V59.5955C58.6786 60.4308 59.0576 60.8295 59.8726 60.8295C60.6686 60.8295 61.313 60.4308 61.9953 59.8043V55.2478H63.0757V61.57H61.9953V60.6207C61.4268 61.1523 60.6118 61.6839 59.5504 61.6839C58.2995 61.6839 57.6172 61.0004 57.6172 59.8043Z" fill="white"></path><path d="M64.6487 55.2479H65.729V56.1972C66.2976 55.6656 67.1126 55.115 68.174 55.115C69.4249 55.115 70.1072 55.8175 70.1072 57.0135V61.57H69.0458V57.2414C69.0458 56.406 68.6667 56.0073 67.8517 56.0073C67.0747 56.0073 66.4113 56.406 65.729 57.0325V61.589H64.6487V55.2479Z" fill="white"></path><path d="M71.2637 58.4182C71.2637 56.2159 72.4577 55.1148 74.0498 55.1148C74.8458 55.1148 75.585 55.4945 76.0778 56.0451V52.7036H77.1391V60.013C77.1391 60.7724 77.196 61.2471 77.3287 61.5698H76.2104C76.1346 61.361 76.0588 61.0003 76.0588 60.6775C75.5471 61.2281 74.8837 61.6647 73.8982 61.6647C72.4198 61.6647 71.2637 60.6206 71.2637 58.4182ZM76.0588 59.8421V56.9374C75.4902 56.3108 74.8648 55.9881 74.1824 55.9881C73.0453 55.9881 72.3061 56.7665 72.3061 58.4372C72.3061 60.051 73.1021 60.8294 74.1635 60.8294C74.9216 60.8104 75.5281 60.4117 76.0588 59.8421Z" fill="white"></path><path d="M78.7498 52.8745H79.868V53.8807H78.7498V52.8745ZM78.7877 55.2477H79.849V61.5698H78.7877V55.2477Z" fill="white"></path><path d="M81.4795 55.2479H82.5598V56.1972C83.1284 55.6656 83.9434 55.115 85.0047 55.115C86.2556 55.115 86.938 55.8175 86.938 57.0135V61.57H85.8766V57.2414C85.8766 56.406 85.4975 56.0073 84.6826 56.0073C83.9055 56.0073 83.2421 56.406 82.5598 57.0325V61.589H81.4795V55.2479Z" fill="white"></path><path d="M87.7336 62.4243C87.7336 61.7788 88.1885 61.3042 88.9277 61.0194C88.5486 60.8485 88.3781 60.5827 88.3781 60.222C88.3781 59.8233 88.7192 59.4626 89.193 59.1968C88.5676 58.7981 88.1885 58.1716 88.1885 57.3742C88.1885 56.0452 89.2878 55.0959 90.842 55.0959C91.638 55.0959 92.3203 55.3617 92.7752 55.7604C93.1732 55.4757 93.7797 55.2288 94.3293 55.1719V56.0832C93.9692 56.0832 93.5333 56.1401 93.1543 56.292C93.3627 56.5768 93.4954 56.9565 93.4954 57.3742C93.4954 58.7412 92.3772 59.6335 90.8609 59.6335C90.4818 59.6335 90.1596 59.5765 89.8185 59.4816C89.5531 59.5955 89.3636 59.7664 89.3636 59.9752C89.3636 60.241 89.5721 60.3549 90.2734 60.4119L91.6001 60.5258C93.249 60.6397 94.1019 61.1523 94.1019 62.1585C94.1019 63.3546 92.8131 64.0001 90.9178 64.0001C88.6813 64.0001 87.7336 63.3926 87.7336 62.4243ZM93.0974 62.2725C93.0974 61.7029 92.6615 61.4561 91.2968 61.3612L90.0649 61.2852C89.9322 61.2662 89.8185 61.2662 89.6858 61.2472C89.0604 61.4561 88.7192 61.8548 88.7192 62.2914C88.7192 62.918 89.4015 63.2407 91.0125 63.2407C92.3203 63.2217 93.0974 62.842 93.0974 62.2725ZM92.4719 57.4122C92.4719 56.4819 91.8844 55.9123 90.823 55.9123C89.8185 55.9123 89.1741 56.5009 89.1741 57.4122C89.1741 58.3235 89.8374 58.893 90.823 58.893C91.8086 58.893 92.4719 58.3235 92.4719 57.4122Z" fill="white"></path><path d="M98.0442 52.7036H99.4657L102.347 60.2408H102.365L105.19 52.7036H106.63V61.5698H105.569V54.3933H105.55C105.417 54.868 105.208 55.4375 105 56.0261L102.82 61.5698H101.835L99.6552 56.0261C99.4278 55.4375 99.2761 55.0768 99.0866 54.3553H99.0677V61.5698H98.0631V52.7036H98.0442Z" fill="white"></path><path d="M108.014 60.0701C108.014 58.7791 109.132 57.8868 112.373 57.4312V57.1464C112.373 56.349 111.937 55.9693 111.141 55.9693C110.155 55.9693 109.416 56.387 108.772 56.9185L108.222 56.273C108.98 55.6086 109.947 55.0959 111.255 55.0959C112.809 55.0959 113.434 55.8933 113.434 57.2033V59.9942C113.434 60.7536 113.491 61.2282 113.624 61.551H112.543C112.449 61.2852 112.392 61.0384 112.392 60.6777C111.653 61.3422 110.838 61.6459 109.871 61.6459C108.734 61.6649 108.014 61.0954 108.014 60.0701ZM112.373 59.9183V58.1526C109.89 58.5323 109.056 59.1209 109.056 59.9183C109.056 60.5258 109.473 60.8485 110.155 60.8485C111.027 60.8485 111.766 60.5068 112.373 59.9183Z" fill="white"></path><path d="M114.59 58.4182C114.59 56.2159 115.784 55.1148 117.376 55.1148C118.172 55.1148 118.911 55.4945 119.404 56.0451V52.7036H120.466V60.013C120.466 60.7724 120.522 61.2471 120.655 61.5698H119.537C119.461 61.361 119.385 61.0003 119.385 60.6775C118.874 61.2281 118.21 61.6647 117.225 61.6647C115.746 61.6647 114.59 60.6206 114.59 58.4182ZM119.404 59.8421V56.9374C118.836 56.3108 118.21 55.9881 117.528 55.9881C116.391 55.9881 115.651 56.7665 115.651 58.4372C115.651 60.051 116.447 60.8294 117.509 60.8294C118.267 60.8104 118.855 60.4117 119.404 59.8421Z" fill="white"></path><path d="M121.679 58.3994C121.679 56.1022 123.271 55.0959 124.636 55.0959C126.19 55.0959 127.365 56.1591 127.365 58.4374V58.6462H122.759C122.797 60.0701 123.65 60.8296 124.73 60.8296C125.678 60.8296 126.209 60.4498 126.702 59.8043L127.327 60.3359C126.72 61.1713 125.887 61.6839 124.674 61.6839C123.1 61.7029 121.679 60.6017 121.679 58.3994ZM126.341 57.8678C126.247 56.7477 125.697 55.9693 124.617 55.9693C123.745 55.9693 122.911 56.5578 122.759 57.8678H126.341Z" fill="white"></path><path d="M130.908 59.4246L131.818 59.0259C132.273 60.203 133.183 60.7916 134.415 60.7916C135.704 60.7916 136.556 60.26 136.556 59.3297C136.556 58.4564 136.064 58.0197 134.263 57.4691C132.368 56.8996 131.231 56.4059 131.231 54.8681C131.231 53.5201 132.425 52.5139 134.168 52.5139C135.912 52.5139 136.917 53.3683 137.39 54.5074L136.519 54.982C136.026 53.9188 135.23 53.4822 134.149 53.4822C132.993 53.4822 132.292 54.0328 132.292 54.7922C132.292 55.7414 132.917 56.0452 134.699 56.5958C136.538 57.1464 137.637 57.7539 137.637 59.2538C137.637 60.7156 136.31 61.7219 134.377 61.7219C132.614 61.7408 131.382 60.8295 130.908 59.4246Z" fill="white"></path><path d="M139.04 52.8745H140.158V53.8807H139.04V52.8745ZM139.059 55.2477H140.12V61.5698H139.059V55.2477Z" fill="white"></path><path d="M141.769 55.2479H142.83V56.1972C143.456 55.5896 144.195 55.115 145.18 55.115C146.28 55.115 146.753 55.5706 146.981 56.2351C147.606 55.6276 148.421 55.115 149.388 55.115C150.715 55.115 151.283 55.8744 151.283 57.0135V61.57H150.222V57.2414C150.222 56.406 149.938 56.0073 149.085 56.0073C148.346 56.0073 147.758 56.406 147.076 57.0325V61.589H146.014V57.2603C146.014 56.425 145.73 56.0263 144.877 56.0263C144.157 56.0263 143.55 56.425 142.849 57.0515V61.608H141.769V55.2479Z" fill="white"></path><path d="M152.8 55.2479H153.861V56.1212C154.354 55.5896 155.036 55.115 156.022 55.115C157.519 55.115 158.675 56.1972 158.675 58.3995C158.675 60.6018 157.5 61.665 155.908 61.665C155.112 61.665 154.43 61.3232 153.861 60.7537V63.9622H152.8V55.2479ZM157.614 58.3995C157.614 56.7857 156.818 55.9883 155.775 55.9883C155.017 55.9883 154.411 56.387 153.88 56.9566V59.8614C154.449 60.4879 155.074 60.8106 155.775 60.8106C156.894 60.8296 157.614 60.0892 157.614 58.3995Z" fill="white"></path><path d="M159.983 52.7036H161.044V61.5698H159.983V52.7036Z" fill="white"></path><path d="M162.314 58.3994C162.314 56.1022 163.906 55.0959 165.271 55.0959C166.825 55.0959 168 56.1591 168 58.4374V58.6462H163.394C163.432 60.0701 164.285 60.8296 165.365 60.8296C166.313 60.8296 166.844 60.4498 167.337 59.8043L167.962 60.3359C167.355 61.1713 166.522 61.6839 165.309 61.6839C163.735 61.7029 162.314 60.6017 162.314 58.3994ZM166.976 57.8678C166.882 56.7477 166.332 55.9693 165.252 55.9693C164.38 55.9693 163.546 56.5578 163.394 57.8678H166.976Z" fill="white"></path></g><defs><clipPath id="clip0_695_38"><rect width="168" height="64" fill="white"></rect></clipPath></defs></svg>