<?xml version="1.0" encoding="utf-8"?>
<!-- Generator: Adobe Illustrator 16.0.0, SVG Export Plug-In . SVG Version: 6.00 Build 0)  -->
<!DOCTYPE svg PUBLIC "-//W3C//DTD SVG 1.0//EN" "http://www.w3.org/TR/2001/REC-SVG-20010904/DTD/svg10.dtd">
<svg version="1.0" id="Layer_1" xmlns="http://www.w3.org/2000/svg" xmlns:xlink="http://www.w3.org/1999/xlink" x="0px" y="0px"
	 width="220px" height="49px" viewBox="0 0 220 49" enable-background="new 0 0 220 49" xml:space="preserve">
<g>
	<g>
		<path fill-rule="evenodd" clip-rule="evenodd" fill="#ffffff" d="M68.94,29.32c0.23,0,0.42,0.08,0.58,0.24l1.63,1.75
			c-0.8,1.02-1.81,1.8-3,2.33c-1.2,0.54-2.62,0.8-4.27,0.8c-1.49,0-2.83-0.25-4.02-0.76c-1.19-0.51-2.21-1.22-3.04-2.12
			c-0.83-0.91-1.47-1.99-1.92-3.23c-0.45-1.25-0.68-2.61-0.68-4.09c0-0.99,0.11-1.93,0.33-2.82c0.21-0.89,0.53-1.72,0.94-2.47
			c0.41-0.75,0.91-1.43,1.49-2.03c0.58-0.6,1.24-1.12,1.97-1.55c0.73-0.42,1.53-0.75,2.4-0.97c0.86-0.23,1.79-0.34,2.77-0.34
			c0.73,0,1.42,0.06,2.08,0.19c0.65,0.13,1.26,0.31,1.83,0.54c0.57,0.23,1.09,0.51,1.58,0.83c0.48,0.33,0.91,0.68,1.29,1.07
			l-1.38,1.89c-0.09,0.12-0.19,0.23-0.32,0.32c-0.13,0.09-0.3,0.14-0.52,0.14c-0.22,0-0.44-0.08-0.67-0.24
			c-0.22-0.15-0.5-0.33-0.82-0.52c-0.33-0.19-0.74-0.37-1.23-0.52c-0.49-0.16-1.11-0.24-1.86-0.24c-0.83,0-1.59,0.15-2.29,0.46
			c-0.7,0.3-1.29,0.74-1.79,1.31c-0.5,0.57-0.89,1.28-1.17,2.11c-0.27,0.83-0.41,1.78-0.41,2.84c0,1.08,0.15,2.03,0.45,2.87
			c0.3,0.84,0.7,1.55,1.22,2.12c0.52,0.58,1.12,1.02,1.82,1.32c0.69,0.29,1.43,0.44,2.21,0.44c0.47,0,0.9-0.02,1.28-0.06
			c0.38-0.05,0.73-0.13,1.05-0.24c0.33-0.11,0.64-0.25,0.92-0.43c0.29-0.17,0.58-0.39,0.88-0.66c0.1-0.08,0.2-0.15,0.31-0.2
			C68.69,29.34,68.81,29.32,68.94,29.32z"/>
		<path fill-rule="evenodd" clip-rule="evenodd" fill="#ffffff" d="M81.3,30.93c0.67,0,1.27-0.12,1.8-0.34
			c0.54-0.23,0.98-0.54,1.35-0.96c0.37-0.41,0.94-0.91,1.14-1.5c0.19-0.58,0.28-1.24,0.28-1.98V14.4h4.29v11.87
			c0,1.22-0.19,2.21-0.58,3.22c-0.39,1.01-1.41,1.88-2.13,2.62c-0.73,0.73-1.61,1.3-2.64,1.71c-1.04,0.42-2.2,0.62-3.51,0.62
			c-1.3,0-2.47-0.2-3.51-0.62c-1.04-0.41-1.92-0.98-2.64-1.71c-0.72-0.74-1.17-1.61-1.56-2.62C73.2,28.48,73,27.37,73,26.15V14.4
			h4.29v11.87c0,0.74,0.1,1.28,0.29,1.86c0.19,0.59,0.2,1.09,0.56,1.5c0.37,0.42,0.82,0.73,1.35,0.96
			C80.02,30.81,80.63,30.93,81.3,30.93z"/>
		<path fill-rule="evenodd" clip-rule="evenodd" fill="#ffffff" d="M101.05,30.94c0.66,0,1.31-0.08,1.74-0.24
			c0.42-0.16,0.77-0.25,1.02-0.52c0.26-0.26,0.44-0.57,0.54-0.91c0.1-0.35,0.15-0.7,0.15-1.07c0-0.4-0.06-0.76-0.18-1.08
			c-0.12-0.32-0.31-0.59-0.58-0.82c-0.26-0.23-0.61-0.58-1.03-0.69c-0.43-0.12-0.95-0.18-1.58-0.18h-3.61v5.51H101.05z M97.52,17.46
			v5.52h2.82c0.57,0,1.09-0.05,1.53-0.15c0.45-0.09,0.83-0.42,1.13-0.63c0.3-0.21,0.53-0.49,0.7-0.83c0.16-0.35,0.24-0.76,0.24-1.25
			c0-0.49-0.07-0.92-0.2-1.26c-0.14-0.35-0.34-0.63-0.62-0.84c-0.27-0.21-0.62-0.32-1.04-0.41c-0.42-0.1-0.92-0.15-1.5-0.15H97.52z
			 M100.3,14.4c1.34,0,2.76,0.13,3.71,0.38c0.95,0.25,1.72,0.49,2.32,0.95c0.6,0.46,1.04,1.02,1.32,1.68
			c0.27,0.66,0.41,1.4,0.41,2.22c0,0.45-0.07,0.89-0.2,1.32c-0.14,0.42-0.34,0.81-0.62,1.18c-0.28,0.38-0.64,0.71-1.08,1.02
			c-0.44,0.3-0.96,0.55-1.57,0.77c1.36,0.32,2.36,0.84,3.01,1.56c0.65,0.73,0.98,1.66,0.98,2.82c0,0.84-0.16,1.63-0.49,2.35
			c-0.32,0.72-0.8,1.35-1.42,1.88s-1.39,0.73-2.3,1.02c-0.91,0.3-1.96,0.45-3.14,0.45h-8V14.4H100.3z"/>
		<polygon fill-rule="evenodd" clip-rule="evenodd" fill="#ffffff" points="115.9,16.85 115.9,22.36 122.64,22.36 122.64,25.43 
			115.9,25.43 115.9,30.94 124.48,30.94 124.48,34 111.61,34 111.61,13.79 124.48,13.79 124.48,16.85 		"/>
		<polygon fill-rule="evenodd" clip-rule="evenodd" fill="#ffffff" points="132.45,16.24 132.45,24.2 139.8,24.2 139.8,25.43 
			132.45,25.43 132.45,34.61 131.22,34.61 131.22,15.01 141.03,15.01 141.03,16.24 		"/>
		<path fill-rule="evenodd" clip-rule="evenodd" fill="#ffffff" d="M149.8,33.22c0.79,0,1.5-0.16,2.13-0.49
			c0.63-0.32,1.16-0.78,1.6-1.35c0.43-0.58,1.02-1.26,1.25-2.04c0.23-0.79,0.34-1.63,0.34-2.54V15.01h1.23v12.03
			c0,1.07-0.15,1.83-0.43,2.76c-0.29,0.93-0.99,1.75-1.54,2.44c-0.54,0.69-1.2,1.23-1.97,1.63c-0.77,0.39-1.65,0.59-2.61,0.59
			s-1.84-0.2-2.61-0.59c-0.77-0.4-1.43-0.94-1.97-1.63c-0.55-0.69-1.02-1.51-1.31-2.44c-0.29-0.93-0.43-1.93-0.43-3V15.01h1.22
			v12.02c0,0.9,0.12,1.51,0.35,2.29c0.23,0.79,0.6,1.47,1.03,2.04c0.43,0.58,0.96,1.04,1.59,1.36
			C148.3,33.05,149.01,33.22,149.8,33.22z"/>
		<path fill-rule="evenodd" clip-rule="evenodd" fill="#ffffff" d="M173.51,14.55V34h-0.76c-0.1,0-0.18-0.02-0.25-0.06
			c-0.06-0.04-0.13,0.11-0.19,0.01l-10.48-16.88c0.02,0.27,0.03,0.54,0.03,0.78V34h-1.22V14.4h0.59c0.11,0,0.12,0.02,0.18,0.05
			c0.06,0.03,0.12,0.48,0.19,0.59l10.72,16.83c-0.03-0.27-0.04-0.53-0.04-0.78V14.77L173.51,14.55z"/>
		<path fill-rule="evenodd" clip-rule="evenodd" fill="#ffffff" d="M190.64,24.49c0-1.35-0.16-2.56-0.48-3.63
			c-0.32-1.06-0.77-1.96-1.35-2.69c-0.59-0.73-1.29-1.58-2.1-1.97c-0.82-0.38-1.73-0.57-2.71-0.57h-4.98v17.15h4.84
			c0.98,0,2.03-0.2,2.85-0.58c0.81-0.39,1.51-0.64,2.1-1.37c0.58-0.74,1.03-1.63,1.35-2.7C190.48,27.07,190.64,25.86,190.64,24.49z
			 M191.88,24.49c0,1.51-0.19,2.86-0.57,4.06c-0.38,1.2-0.92,2.22-1.61,3.06c-0.7,0.84-1.53,1.27-2.5,1.72
			c-0.97,0.45-2.04,0.67-3.2,0.67h-6.2V14.4h6.03c1.17,0,2.4,0.23,3.37,0.68c0.97,0.44,1.8,1.46,2.5,2.31
			c0.69,0.84,1.23,1.86,1.61,3.06C191.69,21.65,191.88,23,191.88,24.49z"/>
		<polygon fill-rule="evenodd" clip-rule="evenodd" fill="#ffffff" points="205.37,32.78 205.37,34 195.57,34 195.57,14.4 
			205.37,14.4 205.37,15.63 196.79,15.63 196.79,23.59 204.15,23.59 204.15,24.81 196.79,24.81 196.79,32.78 		"/>
		<path fill-rule="evenodd" clip-rule="evenodd" fill="#ffffff" d="M212.52,24.2c0.74,0,1.53-0.1,2.11-0.31s1.07-0.32,1.48-0.7
			c0.4-0.39,0.7-0.85,0.91-1.39s0.32-1.15,0.32-1.83c0-1.38-0.39-2.67-1.15-3.34c-0.77-0.67-1.89-1-3.36-1h-3.17v8.57H212.52z
			 M220,34h-1.03c-0.13,0-0.24,0.2-0.33,0.15c-0.09-0.05-0.17-0.15-0.25-0.28l-5.3-7.89c-0.07-0.1-0.13-0.19-0.2-0.27
			c-0.06-0.07-0.14-0.13-0.22-0.17c-0.08-0.04-0.18-0.07-0.29-0.09s-0.25-0.02-0.41-0.02h-2.31V34h-1.22V14.4h4.22
			c1.9,0,3.49,0.43,4.44,1.3c0.94,0.87,1.42,2.51,1.42,4.19c0,0.74-0.11,1.42-0.33,2.03c-0.22,0.62-0.53,1.16-0.94,1.62
			c-0.41,0.46-0.9,0.84-1.48,1.13s-1.23,0.49-1.96,0.59c0.19,0.14,0.36,0.1,0.5,0.33L220,34z"/>
	</g>
	<g>
		<g>
			<defs>
				<path id="SVGID_1_" d="M48.98,24.5C48.98,10.97,38.02,0,24.49,0C10.97,0,0,10.97,0,24.5C0,38.03,10.97,49,24.49,49
					C38.02,49,48.98,38.03,48.98,24.5z"/>
			</defs>
			<use xlink:href="#SVGID_1_"  overflow="visible" fill="#FD6244"/>
			<clipPath id="SVGID_2_">
				<use xlink:href="#SVGID_1_"  overflow="visible"/>
			</clipPath>
			<path clip-path="url(#SVGID_2_)" fill="#D84D3A" d="M15.27,30.32l17.17,17.34c5.55-1.91,10.18-5.74,13.12-10.71l-11.84-6.63
				l-9.22,4.1L15.27,30.32z"/>
		</g>
		<g>
			<polygon fill="#FFFFFF" points="33.78,18.56 24.59,22.49 24.59,34.36 33.78,30.29 			"/>
			<polygon fill="#FFFFFF" points="15.4,18.56 24.59,22.49 24.59,34.36 15.4,30.29 			"/>
			<polygon fill="#D84D3A" points="24.76,14.65 33.59,18.53 24.5,22.45 15.35,18.51 			"/>
		</g>
	</g>
</g>
</svg>
