<?xml version="1.0" encoding="UTF-8"?>
<svg id="Layer_1" data-name="Layer 1" xmlns="http://www.w3.org/2000/svg" xmlns:xlink="http://www.w3.org/1999/xlink" width="172" height="32" viewBox="0 0 171.7 32">
  <defs>
    <style>
      .cls-1 {
        fill: none;
      }

      .cls-2 {
        fill: #02025b;
      }

      .cls-3 {
        clip-path: url(#clippath);
      }
    </style>
    <clipPath id="clippath">
      <rect class="cls-1" width="171.7" height="32"/>
    </clipPath>
	<title>Logo Elavon Rebrand</title>
	<desc>
		Logo Elavon Rebrand
	</desc>
  </defs>
  <g class="cls-3">
    <g>
      <path class="cls-2" d="M169.79,31.61c-1.06,0-1.9-.84-1.9-1.91s.84-1.9,1.9-1.9,1.9.84,1.9,1.9-.84,1.91-1.9,1.91ZM168.17,29.71c0,.92.71,1.64,1.63,1.64s1.63-.73,1.63-1.64-.73-1.64-1.63-1.64-1.63.73-1.63,1.64ZM169.76,28.65c.26,0,.45.02.57.08.22.09.32.27.32.53,0,.19-.07.32-.21.41-.07.05-.17.08-.3.1.16.02.28.09.36.2.08.11.11.22.11.32v.31c0,.09.01.1.03.13h-.34c-.01-.05-.02-.08-.02-.13,0-.23.01-.5-.2-.62-.08-.05-.22-.07-.41-.07h-.29v.82h-.37v-2.09h.75ZM169.71,28.9h-.32v.75h.33c.32,0,.57-.07.57-.37,0-.28-.14-.38-.59-.38Z"/>
      <path class="cls-2" d="M59.59,32c-5.85,0-11-4.2-11-11.39,0-6.8,5.02-11.22,10.48-11.22,6.58,0,10.52,4.2,10.52,11.04,0,.82-.09,1.69-.09,1.77h-15.24c.13,2.81,2.51,4.85,5.37,4.85,2.47,0,3.94-1.12,4.68-2.81l4.85,1.34c-1.17,3.5-4.51,6.41-9.57,6.41h0ZM63.92,18.27c-.09-2.12-1.47-4.2-4.76-4.2-2.99,0-4.63,2.25-4.76,4.2h9.53ZM72.12,31.35V0h5.76v31.35h-5.76ZM80.5,25.55c0-3.81,2.81-5.93,6.37-6.45l5.24-.78c1.21-.18,1.6-.78,1.6-1.52,0-1.52-1.17-2.77-3.59-2.77-2.29,0-3.64,1.34-3.98,2.99l-5.15-.99c.56-3.21,3.59-6.62,9.09-6.62,6.76,0,9.27,3.81,9.27,8.1v10.48c0,1.12.13,2.64.26,3.38h-5.28c-.13-.56-.22-1.73-.22-2.56-1.08,1.69-3.12,3.16-6.28,3.16-4.55,0-7.32-3.07-7.32-6.41h0ZM89.03,27.67c2.42,0,4.68-1.17,4.68-4.94v-.95l-4.8.74c-1.47.22-2.64,1.04-2.64,2.69,0,1.26.91,2.47,2.77,2.47h0ZM114.34,31.35h-5.76l-8.71-21.3h6.32l5.28,14.29,5.07-14.29h6.06l-8.27,21.3h0ZM144.59,20.7c0,6.54-4.8,11.3-11.17,11.3s-11.17-4.76-11.17-11.3,4.8-11.3,11.17-11.3,11.17,4.72,11.17,11.3ZM138.83,20.7c0-4.03-2.6-6.06-5.41-6.06s-5.41,2.04-5.41,6.06,2.6,6.06,5.41,6.06,5.41-2.04,5.41-6.06ZM152.76,31.35h-5.76V10.05h5.59v2.64c1.3-2.21,3.86-3.21,6.15-3.21,5.28,0,7.71,3.77,7.71,8.44v13.42h-5.76v-12.43c0-2.38-1.17-4.24-3.94-4.24-2.51,0-3.99,1.95-3.99,4.42v12.25h0Z"/>
      <path class="cls-2" d="M22.93,9.41l-4.39,10.92-4.39-10.92H0v22.58h14.14l4.39-10.92,4.39,10.92h14.14V9.41h-14.14Z"/>
    </g>
  </g>
</svg>