<?xml version="1.0" encoding="utf-8"?>
<!-- Generator: Adobe Illustrator 23.0.3, SVG Export Plug-In . SVG Version: 6.00 Build 0)  -->
<svg version="1.1" id="Layer_1" xmlns="http://www.w3.org/2000/svg" xmlns:xlink="http://www.w3.org/1999/xlink" x="0px" y="0px"
	 viewBox="0 0 1750 643.9" style="enable-background:new 0 0 1750 643.9;" xml:space="preserve">
<style type="text/css">
	.st0{fill:#FF594B;}
</style>
<g>
	<path class="st0" d="M115.9,194.3c14.9,0,26.6-11.7,26.6-26.6c-0.4-14.9-11.6-26.6-26.6-26.6c-14.2,0-26.6,11.6-26.6,26.6
		C89.4,182.6,101.7,194.3,115.9,194.3z"/>
	<path class="st0" d="M148,375.3c-7.6,0-13.5-4.7-13.5-13.1V240.6c0-4.7-3.6-8.4-8.4-8.4h-22.6c-4.7,0-8.4,3.7-8.4,8.4
		c0,0,0,126.7,0,126.4c0,32.4,16.4,47,40.8,47c5.8,0,10.2-0.4,14.2-1.5c2.5-0.7,4.4-3.3,4.4-5.8v-25.5
		C154.6,377.5,151.3,375.3,148,375.3z"/>
	<path class="st0" d="M431.4,232.6H407c-3.6,0-6.9,2.2-8,5.8l-37.5,118l-38.2-118c-1.1-3.3-4.4-5.8-8-5.8h-17.9
		c-3.6,0-6.6,2.2-8,5.8l-39.3,118l-36.8-118c-1.1-3.6-4.4-5.8-8-5.8h-24.4c-5.8,0-9.8,5.8-7.7,11.3l54.7,162.8
		c1.1,3.3,4.4,5.8,7.6,5.8h24.8c3.6,0,6.6-2.2,7.6-5.8l37.5-110.7l37.1,110.7c1.1,3.3,4.4,5.8,8,5.8H376c3.7,0,6.6-2.2,7.7-5.8
		l54.6-162.8C441.2,238.4,436.8,232.6,431.4,232.6z"/>
	<path class="st0" d="M553,228.5c-53.2,0-94.3,41.2-94.3,93.6c0,52.4,41.2,93.6,94.3,93.6c53.2,0,94.3-41.2,94.3-93.6
		C647.3,269.7,606.5,228.5,553,228.5z M553,379c-32.1,0-54.3-24.8-54.3-56.8c0-32.1,21.8-56.8,54.3-56.8c32.1,0,54.3,24.8,54.3,56.8
		C607.3,354.2,584.3,379,553,379z"/>
	<path class="st0" d="M768.6,265c19.3,0,35.3,9.5,45.2,23.7c2.2,3.3,6.5,4.4,10.2,2.9l21.5-9.1c2.9-1.5,4.7-4.4,4.7-7.6
		c0-1.5-0.4-2.9-1.1-4c0-0.3-22.6-41.9-79.8-41.9c-54.6,0-96.5,40.8-96.5,94.7c0,53.5,41.9,94.7,96.5,92.5
		c55.4,0,79.4-41.5,79.4-41.5c0.7-1.4,1.5-2.9,1.5-4.7c0-3.3-1.8-6.2-5.1-7.6l-21.5-9.1c-3.6-1.4-8-0.7-10.2,2.9
		c-9.8,14.2-25.5,24-44.8,24c-31.3,0-55.7-26.6-55.7-57.9C713.3,289.7,736.6,265,768.6,265z"/>
	<path class="st0" d="M1631.8,66.1h-454.5c-16,0-28.8,12.8-28.8,28.8v454.2c0,16,12.7,28.8,28.8,28.8h456c16,0,27.7-12.8,27.3-28.8
		V94.9C1660.6,78.9,1647.9,66.1,1631.8,66.1z M1600.5,518.5H1209V125.8l391.5,0.7V518.5z"/>
	<path class="st0" d="M1453,394.6l48.8,20c3.6,1.5,7.6-0.7,7.6-5.1V234.4c0-4-4-6.5-7.6-5.1l-48.8,20.4c-1.8,0.7-3.3,2.9-3.3,5.5
		v134.4C1449.7,391.7,1450.8,393.5,1453,394.6z"/>
	<path class="st0" d="M1307,414.7l48.8-20c2.2-0.7,3.3-2.9,3.3-5.1V255.1c0-2.5-1.4-4.7-3.3-5.5l-48.8-20.4
		c-3.6-1.4-7.7,1.1-7.7,5.1v175.2C1299.3,413.6,1303.3,416.1,1307,414.7z"/>
	<path class="st0" d="M1072,375c-7.6,0-12.4-4.7-13.5-13.1V240.9c0-4.8-3.7-8.4-8.4-8.4h-22.6c-4.7,0-8.4,3.6-8.4,8.4v7.6
		c-11.6-13.1-30.2-20-52.1-20c-53.2,0-90,43-90,93.6c0,50.6,36.8,93.6,90,93.6c20,0,39-3.6,60.5-28c4.7,15.7,17.1,26.6,32.4,26.6
		c5.8,0,10.2-0.4,14.2-1.5c2.6-0.7,4.4-3.3,4.4-5.8v-25.5C1078.2,377.5,1075.3,375,1072,375z M972.2,380.4c-32.4,0-55-28-53.2-61.9
		c1.8-32.4,30.6-57.5,62.6-52.8c17.5,2.5,29.5,12.4,37.9,24l0.4,65.2C1009.8,368.8,994.5,379.7,972.2,380.4z"/>
</g>
</svg>
