<svg width="40" height="50" viewBox="0 0 40 50" fill="none" xmlns="http://www.w3.org/2000/svg">
<path d="M36.647 2.01074L35.565 3.66663C36.3125 4.14411 36.9274 4.79977 37.3536 5.57371C37.7798 6.34765 38.0036 7.21518 38.0047 8.09703V42.7407C38.003 44.1404 37.4417 45.4824 36.4437 46.4722C35.4458 47.4619 34.0928 48.0186 32.6816 48.0201H7.57501C6.16383 48.0186 4.81089 47.4619 3.81303 46.4721C2.81518 45.4824 2.25392 44.1404 2.25242 42.7407V37.9019H0.25592V42.7407C0.261595 44.6643 1.03455 46.5075 2.40593 47.8677C3.77731 49.2279 5.63566 49.9944 7.57501 49.9999H32.6816C34.6124 49.9945 36.4634 49.2346 37.8333 47.885C39.2033 46.5354 39.982 44.7048 40.0007 42.7897V8.02015C39.9846 6.82184 39.67 5.64609 39.0848 4.5976C38.4997 3.54911 37.6622 2.66044 36.647 2.01074Z" fill="white"/>
<path d="M7.71826 24.5168H2.98862C1.98706 24.5168 1.23868 24.7539 0.743497 25.2282C0.24831 25.7025 0.000480427 26.3575 7.77006e-06 27.1931C-0.022719 27.689 0.0720575 28.1833 0.276733 28.6363C0.481408 29.0893 0.790284 29.4884 1.17858 29.8016C0.392864 30.2076 7.77006e-06 30.902 7.77006e-06 31.8848C-0.0133713 32.3874 0.0918347 32.8862 0.307235 33.3413C0.522527 33.7612 0.818433 34.1355 1.17834 34.443L0.563887 34.5107C0.518503 34.5111 0.473722 34.5211 0.432581 34.5401C0.391439 34.5591 0.354898 34.5867 0.325432 34.6209C0.272428 34.7104 0.248422 34.8139 0.25666 34.9174V36.1709C0.239457 36.3143 0.275955 36.459 0.359227 36.5776C0.472929 36.6587 0.613091 36.6948 0.752241 36.6788H7.71826C7.81805 36.6872 7.91853 36.6759 8.01387 36.6455C8.1092 36.6151 8.1975 36.5662 8.27363 36.5016C8.41022 36.3319 8.47459 36.116 8.453 35.8999V34.8492C8.46426 34.7434 8.4542 34.6365 8.42341 34.5346C8.39261 34.4327 8.3417 34.3379 8.27363 34.2557C8.11707 34.1311 7.91833 34.0707 7.71826 34.0869H3.34642C3.16122 34.0955 2.97613 34.0678 2.80175 34.0053C2.62737 33.9429 2.46713 33.8469 2.33021 33.7229C2.20306 33.6017 2.10315 33.4552 2.03701 33.2931C1.97087 33.1309 1.94 32.9567 1.94641 32.7819C1.93587 32.6511 1.95581 32.5197 2.0047 32.3977C2.05359 32.2758 2.13012 32.1666 2.22835 32.0787C2.48107 31.9073 2.78522 31.8266 3.09047 31.8499H7.71826C7.8181 31.8582 7.9186 31.8468 8.01394 31.8162C8.10928 31.7857 8.19755 31.7367 8.27363 31.672C8.41015 31.5027 8.47453 31.2872 8.453 31.0714V30.1064C8.47297 29.8958 8.40853 29.6858 8.27363 29.522C8.19755 29.4573 8.10928 29.4083 8.01394 29.3777C7.9186 29.3472 7.8181 29.3357 7.71826 29.344H3.31262C2.94957 29.3612 2.59415 29.2368 2.32241 28.9974C2.198 28.8817 2.10004 28.7409 2.03513 28.5845C1.97023 28.4281 1.9399 28.2597 1.94617 28.0906C1.93592 27.9549 1.95586 27.8186 2.00458 27.6913C2.05329 27.564 2.1296 27.4489 2.22811 27.3541C2.49956 27.1657 2.82958 27.0789 3.15948 27.1092H7.71826C7.91845 27.1255 8.11731 27.0648 8.27363 26.9397C8.34174 26.8576 8.39268 26.763 8.42347 26.6612C8.45427 26.5594 8.46431 26.4525 8.453 26.3468V25.2791C8.47308 25.0685 8.40862 24.8585 8.27363 24.6947C8.19755 24.63 8.10928 24.581 8.01394 24.5505C7.9186 24.5199 7.8181 24.5085 7.71826 24.5168Z" fill="white"/>
<path d="M10.7579 19.6144C10.4868 19.1692 10.1157 18.7922 9.67364 18.5126C9.01448 18.0958 8.32674 17.7252 7.61545 17.4036L0.81983 14.2367C0.735258 14.1933 0.64162 14.1701 0.546398 14.1689C0.353317 14.1689 0.25595 14.2707 0.25595 14.4737V16.4385C0.24739 16.563 0.277317 16.6872 0.341737 16.7944C0.417683 16.8873 0.517908 16.9578 0.631476 16.9981L5.26044 18.861L0.631476 20.7238C0.517975 20.7639 0.417749 20.8341 0.341737 20.9268C0.277364 21.034 0.247439 21.158 0.25595 21.2824V23.2473C0.25595 23.451 0.353081 23.552 0.546398 23.552C0.64164 23.5513 0.735345 23.5281 0.81983 23.4845L7.99169 20.131C8.30577 20.231 8.59791 20.3891 8.85263 20.597C8.94325 20.6862 9.01373 20.7934 9.0594 20.9116C9.10507 21.0298 9.1249 21.1563 9.11756 21.2827C9.12145 21.4843 9.08945 21.6849 9.02303 21.8755C8.95167 22.0614 8.85694 22.2377 8.74109 22.4001C8.68129 22.4791 8.64583 22.5735 8.63899 22.672C8.63899 22.7618 8.70115 22.8408 8.82664 22.9086L9.83599 23.4845C9.91445 23.53 10.0016 23.5588 10.0919 23.5689C10.1436 23.5652 10.1937 23.5495 10.2382 23.5231C10.2826 23.4966 10.3202 23.4602 10.3479 23.4168C10.8764 22.7728 11.1497 21.9596 11.1164 21.1298C11.1336 20.6021 11.0099 20.0794 10.7579 19.6144Z" fill="white"/>
<path d="M20.911 9.80783C21.4881 9.07599 21.7765 7.99027 21.7762 6.55066C21.7759 5.11106 21.4875 4.02541 20.911 3.29373C20.3344 2.56252 19.4817 2.1966 18.353 2.19598C17.212 2.19598 16.3533 2.5619 15.777 3.29373C15.2007 4.02557 14.9122 5.11121 14.9116 6.55066C14.9116 7.99027 15.2 9.07599 15.7768 9.80783C16.3536 10.5397 17.2122 10.9056 18.3528 10.9056C19.4818 10.9056 20.3347 10.5397 20.911 9.80783ZM13.5255 11.3852C12.4159 10.2414 11.8608 8.6299 11.8604 6.55066C11.8599 4.47142 12.4149 2.85999 13.5255 1.71637C14.6358 0.572123 16.245 0 18.353 0C20.4484 0 22.0515 0.572123 23.1623 1.71637C24.273 2.86062 24.8281 4.47213 24.8275 6.5509C24.8275 8.62936 24.2724 10.2409 23.1623 11.3854C22.0522 12.53 20.4491 13.1021 18.353 13.1018C16.2448 13.1018 14.6356 12.5294 13.5255 11.3852Z" fill="white"/>
<path d="M28.2095 12.7973C27.4463 12.6445 26.7179 12.3536 26.0608 11.9391C25.8749 11.8038 25.782 11.6806 25.782 11.5697C25.7885 11.4769 25.8206 11.3877 25.8749 11.3118L26.6375 10.1123C26.7124 9.9895 26.7928 9.92785 26.8795 9.92785C26.9811 9.93809 27.0778 9.97652 27.1584 10.0387C27.6569 10.3127 28.1881 10.5234 28.7396 10.6658C29.3278 10.8247 29.9347 10.9052 30.5442 10.9054C31.2633 10.9054 31.7966 10.7916 32.1442 10.564C32.3184 10.4449 32.4582 10.2825 32.5494 10.093C32.6406 9.90356 32.6802 9.69369 32.6641 9.48434C32.6773 9.19351 32.589 8.90707 32.4141 8.67328C32.21 8.43664 31.9558 8.24752 31.6696 8.11936C31.3411 7.96011 30.8358 7.7511 30.1536 7.4923C29.4588 7.24182 28.7841 6.9395 28.1353 6.58794C27.5997 6.29509 27.1359 5.88856 26.7769 5.39736C26.4123 4.87522 26.2265 4.25067 26.2468 3.61582C26.2468 2.44813 26.6749 1.55322 27.531 0.931092C28.3872 0.308961 29.5156 -0.00140172 30.9162 4.75876e-06C32.7643 4.75876e-06 34.1783 0.344513 35.1581 1.03353C35.3441 1.18074 35.4369 1.30428 35.4369 1.4025C35.4303 1.49525 35.3982 1.58444 35.3441 1.66035L34.5814 2.85984C34.5072 2.98314 34.4266 3.04479 34.3394 3.04479C34.2377 3.03456 34.141 2.99595 34.0606 2.93345C33.2365 2.42303 32.2784 2.1664 31.3073 2.19598C29.9681 2.19598 29.2985 2.67567 29.2985 3.63504C29.2863 3.91497 29.3683 4.191 29.5316 4.41962C29.7043 4.63663 29.9236 4.81279 30.1734 4.93533C30.5913 5.139 31.0198 5.32069 31.4569 5.47964L31.9769 5.68264C32.7158 5.96051 33.4311 6.29672 34.1159 6.68803C34.6044 6.97021 35.0163 7.36603 35.3162 7.84134C35.6151 8.37643 35.7599 8.98281 35.7345 9.59405C35.7516 10.0854 35.6499 10.5738 35.438 11.0182C35.226 11.4627 34.91 11.8505 34.5162 12.1491C33.7029 12.7847 32.5279 13.1022 30.9911 13.1016C30.0554 13.105 29.1222 13.0028 28.2098 12.7968" fill="white"/>
<path d="M3.34407 2.52791H5.53933C6.82952 2.52791 7.47454 3.19208 7.47438 4.52042C7.47422 5.84876 6.82921 6.51293 5.53933 6.51293H3.34407V2.52791ZM0.407454 12.9633C0.526891 12.9647 0.644336 12.9938 0.750367 13.0484L3.32635 14.2486V8.74806H5.74399C8.93111 8.74806 10.525 7.33955 10.5256 4.52253C10.5256 1.69223 8.93174 0.277006 5.74399 0.27685H1.09328C0.977954 0.265833 0.861575 0.278212 0.751227 0.313233C0.640879 0.348253 0.53887 0.405182 0.451411 0.480554C0.308712 0.650715 0.238515 0.869353 0.255731 1.09003V12.9862C0.30463 12.9704 0.355781 12.9625 0.407218 12.9628" fill="white"/>
</svg>
