<svg version="1.1" id="Layer_1" xmlns:x="ns_extend;" xmlns:i="ns_ai;" xmlns:graph="ns_graphs;" xmlns="http://www.w3.org/2000/svg" xmlns:xlink="http://www.w3.org/1999/xlink" x="0px" y="0px" viewBox="0 0 239.9 50" style="enable-background:new 0 0 239.9 50;" xml:space="preserve">
 <style type="text/css">
  .st0{fill:#181818;}
	.st1{fill:#136EF6;}
 </style>
 <metadata>
  <sfw xmlns="ns_sfw;">
   <slices>
   </slices>
   <sliceSourceBounds bottomLeftOrigin="true" height="50" width="239.9" x="-98.8" y="0.6">
   </sliceSourceBounds>
  </sfw>
 </metadata>
 <g>
  <path class="st0" d="M175.3,5.8h-24.4c-0.7,0-1.2,0.4-1.2,1.2v1.9c0,0.7,0.4,1.2,1.2,1.2h9.9v33c0,0.7,0.4,1.1,1.2,1.1h2.2
		c0.7,0,1.1-0.4,1.1-1.1v-33h10c0.7,0,1.1-0.4,1.1-1.2V7C176.4,6.3,176,5.8,175.3,5.8z">
  </path>
  <path class="st0" d="M23.5,26.9c-1.3-1.5-3.3-2.6-5.9-3.4L10,21.4c-0.8-0.2-1.6-0.5-2.4-0.8c-0.7-0.3-1.2-0.6-1.7-1.1
		c-0.4-0.4-0.8-0.9-1.1-1.5c-0.2-0.6-0.4-1.3-0.4-2.2v-0.5c0-1.7,0.5-3,1.5-3.9c1.1-1,2.5-1.4,4.5-1.4h11.6c0.7,0,1.2-0.4,1.2-1.1
		V6.9c0-0.7-0.4-1.1-1.2-1.1H9.8C8.4,5.8,7.1,6,5.9,6.5C4.7,6.9,3.6,7.5,2.8,8.3c-0.9,0.8-1.6,1.8-2.1,2.9C0.2,12.4,0,13.6,0,15v1.3
		c0,2.3,0.7,4.2,2,5.8c1.3,1.5,3.1,2.6,5.4,3.3l7.4,2.1c1,0.3,1.9,0.6,2.7,0.9c0.8,0.3,1.4,0.7,1.9,1.2c0.5,0.5,0.9,1,1.2,1.7
		c0.3,0.7,0.4,1.5,0.4,2.4v1.2c0,1.6-0.5,2.9-1.5,3.8c-1,1-2.5,1.4-4.4,1.4H2.8c-0.7,0-1.2,0.4-1.2,1.1V43c0,0.7,0.4,1.1,1.2,1.1h13
		c2.9,0,5.3-0.9,7.1-2.5c1.7-1.7,2.6-3.9,2.6-6.6v-1.8C25.4,30.5,24.8,28.4,23.5,26.9z">
  </path>
  <path class="st0" d="M92.7,5.8h-2.2c-0.7,0-1.2,0.4-1.2,1.2v36c0,0.7,0.4,1.1,1.2,1.1h2.2c0.7,0,1.1-0.4,1.1-1.1V7
		C93.8,6.3,93.3,5.8,92.7,5.8z">
  </path>
  <path class="st0" d="M66.3,5.8h-2.2C63.4,5.8,63,6.2,63,7v16.4c0,0-0.1,0-0.2,0H48.9c0,0-0.1,0-0.1,0V7c0-0.7-0.4-1.2-1.1-1.2h-2.2
		c-0.7,0-1.2,0.4-1.2,1.2v36c0,0.7,0.4,1.1,1.2,1.1h2.2c0.7,0,1.1-0.4,1.1-1.1V27.3h13.9c0.1,0,0.1,0,0.2,0V43
		c0,0.7,0.4,1.1,1.2,1.1h2.2c0.7,0,1.1-0.4,1.1-1.1V7C67.4,6.3,67,5.8,66.3,5.8z">
  </path>
  <path class="st0" d="M132.2,5.8h-15.5c-0.7,0-1,0.6-1,1.3V43c0,0.7,0.4,1.1,1.2,1.1h2.2c0.7,0,1.1-0.4,1.1-1.1V27.3h10.7
		c0.6,0,1-0.4,1-1.1v-1.8c0-0.7-0.4-1.1-1-1.1h-10.7V10.1h12.1c0.7,0,1.1-0.4,1.1-1.2V7C133.3,6.3,132.9,5.8,132.2,5.8z">
  </path>
  <path class="st0" d="M217.9,10.7l-13.8,17.8c0,0.1-0.1,0.1-0.1,0.2v2c0,0.2,0.2,0.4,0.4,0.4h12.4c0.2,0,0.4,0.2,0.4,0.4v7.1
		c0,0.2,0.2,0.4,0.4,0.4h2.6c0.2,0,0.4-0.2,0.4-0.4V11c0-0.2-0.2-0.4-0.4-0.4h-2C218.1,10.6,217.9,10.6,217.9,10.7z M208.6,27.4
		l7.8-9.9c0.2-0.3,0.8-0.1,0.8,0.2v9.9c0,0.2-0.2,0.4-0.4,0.4H209C208.6,28,208.4,27.6,208.6,27.4z">
  </path>
  <path class="st1" d="M214.9,0c-13.8,0-25,11.2-25,25c0,13.8,11.2,25,25,25c13.8,0,25-11.2,25-25C239.9,11.2,228.7,0,214.9,0z
		 M236.4,25c0,11.8-9.6,21.4-21.4,21.4c-11.9,0-21.4-9.6-21.4-21.4c0-11.8,9.6-21.4,21.4-21.4C226.8,3.6,236.4,13.2,236.4,25z">
  </path>
 </g>
</svg>