<svg xmlns="http://www.w3.org/2000/svg" viewBox="0 0 108.459 39.825" overflow="visible"><g><path d="M 0 0 L 108.459 0 L 108.459 39.807 L 0 39.807 Z" fill="transparent"></path><path d="M 72.281 24.264 C 71.883 24.786 71.249 25.455 70.306 25.906 C 68.312 26.844 66.083 26.267 64.868 25.382 C 64.488 25.111 64.234 24.804 64.18 24.751 C 63.654 24.155 63.292 23.397 63.11 22.494 L 75.852 22.494 C 75.942 21.881 75.98 21.392 75.98 21.013 C 75.98 18.613 75.236 16.554 73.713 14.876 C 72.209 13.197 70.288 12.348 67.931 12.348 C 65.449 12.348 63.437 13.179 61.842 14.821 C 60.265 16.483 59.467 18.523 59.467 20.977 C 59.467 23.469 60.265 25.545 61.86 27.169 C 62.323 27.638 62.84 28.05 63.4 28.397 C 65.502 29.679 67.769 29.643 68.167 29.625 C 68.892 29.607 71.339 29.48 73.405 27.621 C 74.041 27.054 74.574 26.382 74.982 25.635 C 74.089 25.163 73.189 24.706 72.282 24.263 Z M 64.723 16.645 C 65.574 15.923 66.644 15.562 67.932 15.562 C 69.055 15.562 70.052 15.905 70.885 16.573 C 71.738 17.259 72.264 18.252 72.499 19.587 L 63.092 19.587 C 63.328 18.36 63.871 17.367 64.723 16.645 Z M 105.015 12.889 L 108.459 12.889 L 108.459 29.119 L 105.015 29.119 L 105.015 27.243 C 104.45 27.789 103.809 28.251 103.111 28.614 C 101.372 29.517 99.795 29.553 99.451 29.553 C 97.258 29.553 95.391 28.723 93.832 27.062 C 92.273 25.402 91.512 23.397 91.512 21.014 C 91.512 18.614 92.291 16.591 93.832 14.949 C 94.684 14.046 95.644 13.378 96.714 12.98 C 97.587 12.646 98.516 12.48 99.451 12.494 C 100.157 12.494 101.752 12.494 103.402 13.45 C 104.004 13.811 104.553 14.255 105.033 14.769 C 105.015 14.118 105.015 13.505 105.015 12.89 Z M 96.369 24.715 C 97.33 25.708 98.526 26.196 99.976 26.196 C 101.426 26.196 102.622 25.708 103.583 24.715 C 104.544 23.723 105.015 22.494 105.015 20.996 C 105.015 19.498 104.544 18.271 103.583 17.277 C 102.622 16.284 101.426 15.797 99.976 15.797 C 98.526 15.797 97.33 16.284 96.369 17.277 C 95.409 18.271 94.938 19.499 94.938 20.997 C 94.938 22.494 95.409 23.723 96.369 24.716 Z M 50.187 19.912 C 50.17 20.219 50.17 20.653 50.187 21.158 C 50.278 23.324 50.369 25.184 51.62 26.844 C 53.396 29.191 56.295 29.552 56.55 29.589 C 56.967 29.625 57.311 29.625 57.564 29.625 L 58.453 29.625 L 58.453 26.177 L 57.637 26.177 C 56.568 26.159 55.897 25.78 55.607 25.581 C 54.139 24.606 53.885 22.764 53.813 22.331 C 53.763 22.002 53.733 21.671 53.722 21.339 C 53.686 20.743 53.686 20.255 53.686 19.912 L 53.686 15.742 L 58.452 15.742 L 58.452 12.385 L 53.686 12.385 L 53.686 7.492 C 52.476 7.814 51.298 8.249 50.169 8.791 L 50.169 19.912 L 50.188 19.912 Z M 88.214 12.546 C 86.836 16.518 85.458 20.508 84.081 24.48 C 82.986 22.167 81.952 19.825 80.981 17.457 C 80.32 15.831 79.685 14.194 79.078 12.546 L 75.2 12.546 C 76.849 16.465 78.154 19.587 79.133 21.862 C 79.822 23.379 80.511 24.913 81.199 26.43 C 81.308 26.628 81.435 26.971 81.543 27.369 C 81.671 27.82 81.815 28.397 81.706 29.066 C 81.507 30.185 80.637 30.853 80.275 31.123 C 79.683 31.581 78.985 31.879 78.245 31.99 L 78.245 35.619 C 79.03 35.526 79.799 35.326 80.529 35.023 C 81.398 34.661 82.576 33.993 83.863 32.513 C 85.114 31.087 85.857 29.625 87.107 26.448 C 88.449 23.018 89.083 20.851 90.569 16.518 C 91.024 15.185 91.489 13.855 91.965 12.529 Z M 31.627 0 C 36.231 0 39.965 3.719 39.984 8.305 L 39.984 31.52 C 39.984 36.106 36.249 39.825 31.646 39.825 L 8.338 39.825 C 3.734 39.825 0 36.106 0 31.52 L 0 8.305 C 0 3.719 3.734 0 8.338 0 Z M 31.683 10.055 C 27.156 10.047 22.863 12.06 19.974 15.544 C 17.736 18.251 16.511 21.653 16.511 25.165 L 16.511 29.734 L 23.453 29.734 L 23.453 25.165 C 23.451 23.533 23.94 21.939 24.857 20.589 C 26.224 18.571 28.415 17.261 30.84 17.012 C 31.117 16.984 31.397 16.969 31.682 16.969 L 31.682 10.055 Z M 8.283 16.97 C 10.211 16.968 12.079 17.642 13.561 18.877 C 14.122 19.342 14.62 19.878 15.043 20.472 C 15.713 18.092 16.895 15.886 18.506 14.009 C 17.606 13.198 16.613 12.496 15.548 11.917 C 13.318 10.706 10.82 10.072 8.283 10.074 Z" fill="rgb(255,255,255)"></path></g></svg>
