<?xml version="1.0" encoding="UTF-8"?>
<svg width="186px" height="40px" viewBox="0 0 186 40" version="1.1" xmlns="http://www.w3.org/2000/svg" xmlns:xlink="http://www.w3.org/1999/xlink">
    <!-- Generator: Sketch 61.2 (89653) - https://sketch.com -->
    <title>Logo</title>
    <desc>Created with Sketch.</desc>
    <defs>
        <polygon id="path-1" points="0 0.48 20.83995 0.48 20.83995 22.84 0 22.84"></polygon>
        <polygon id="path-3" points="0.2089 0.2001 22.8089 0.2001 22.8089 33 0.2089 33"></polygon>
        <polygon id="path-5" points="0.416834043 0.2001 23.4987064 0.2001 23.4987064 33 0.416834043 33"></polygon>
    </defs>
    <g id="Symbols" stroke="none" stroke-width="1" fill="none" fill-rule="evenodd">
        <g id="Footer" transform="translate(-121.000000, -55.000000)">
            <g id="Logo" transform="translate(121.000000, 55.000000)">
                <g id="Group-3" transform="translate(0.000000, 7.000000)">
                    <mask id="mask-2" fill="white">
                        <use xlink:href="#path-1"></use>
                    </mask>
                    <g id="Clip-2"></g>
                    <path d="M20.83995,0.48 L20.83995,22.52 L16.23995,22.52 L16.23995,17.72 C15.67995,19.347 14.70595,20.607 13.31995,21.5 C11.93345,22.394 10.31995,22.84 8.47995,22.84 C5.91995,22.84 3.86645,22.0135 2.31995,20.36 C0.77295,18.707 -5e-05,16.347 -5e-05,13.28 L-5e-05,0.48 L4.55995,0.48 L4.55995,12.8 C4.55995,14.8 5.06595,16.34 6.07995,17.42 C7.09295,18.5 8.47995,19.04 10.23995,19.04 C12.05345,19.04 13.50645,18.454 14.60045,17.28 C15.69295,16.107 16.23995,14.4 16.23995,12.16 L16.23995,0.48 L20.83995,0.48 Z" id="Fill-1" fill="#FFFFFF" mask="url(#mask-2)"></path>
                </g>
                <path d="M34.6577486,9.54642857 C36.2185765,11.2442187 37,13.667433 37,16.8160714 L37,30 L32.3962645,30 L32.3962645,17.3089286 C32.3962645,15.2830804 31.8844018,13.7151786 30.8611812,12.60625 C29.8379606,11.4973214 28.4386673,10.9428571 26.661787,10.9428571 C24.8303887,10.9428571 23.3634528,11.5383929 22.2594649,12.7294643 C21.155477,13.9205357 20.6042403,15.6660714 20.6042403,17.9660714 L20.6042403,30 L16,30 L16,7.36964286 L20.6042403,7.36964286 L20.6042403,12.3392857 C21.1958607,10.6420089 22.1923271,9.32772321 23.59263,8.39642857 C24.9919233,7.46564732 26.6077739,7 28.4386673,7 C31.0227158,7 33.0959112,7.84863839 34.6577486,9.54642857" id="Fill-4" fill="#FFFFFF"></path>
                <path d="M58.4353251,9.3 C60.3464538,10.8336726 61.5350201,12.9163938 62,15.5486726 L57.0424338,15.5486726 C56.7689765,14.1381416 56.1068411,13.0319027 55.0555155,12.2309735 C54.0041898,11.4305531 52.6860641,11.0300885 51.1021624,11.0300885 C49.2995973,11.0300885 47.7976304,11.6610619 46.5962617,12.9230088 C45.3938689,14.1849558 44.7931845,16.0371681 44.7931845,18.479646 C44.7931845,20.9221239 45.3938689,22.7814602 46.5962617,24.0566372 C47.7976304,25.3328319 49.2995973,25.9699115 51.1021624,25.9699115 C52.6860641,25.9699115 54.0041898,25.5628319 55.0555155,24.7486726 C56.1068411,23.9345133 56.7689765,22.8221681 57.0424338,21.4106195 L62,21.4106195 C61.5350201,24.0434071 60.3464538,26.1327434 58.4353251,27.679646 C56.5236843,29.2265487 54.1066083,30 51.1840972,30 C48.998487,30 47.0673867,29.5389823 45.3872117,28.6159292 C43.7075487,27.693385 42.389423,26.3637611 41.4343707,24.6265487 C40.4777822,22.890354 40,20.840708 40,18.479646 C40,16.1460619 40.4777822,14.1106637 41.4343707,12.3734513 C42.389423,10.6367478 43.7075487,9.30712389 45.3872117,8.3840708 C47.0673867,7.4620354 48.998487,7 51.1840972,7 C54.1066083,7 56.5236843,7.76734513 58.4353251,9.3" id="Fill-6" fill="#FFFFFF"></path>
                <path d="M69.6033569,13.0451327 C68.370561,14.3615265 67.754417,16.173031 67.754417,18.479646 C67.754417,20.7862611 68.370561,22.5977655 69.6033569,23.9141593 C70.8361528,25.2305531 72.4819125,25.8884956 74.540636,25.8884956 C75.8409894,25.8884956 77.00572,25.5831858 78.0358436,24.9725664 C79.0644435,24.3619469 79.8776723,23.5004646 80.4734982,22.3876106 C81.0693242,21.2747566 81.3674912,19.9721018 81.3674912,18.479646 C81.3674912,17.0141593 81.0693242,15.7181195 80.4734982,14.5920354 C79.8776723,13.4659513 79.0644435,12.5973451 78.0358436,11.9867257 C77.00572,11.3761062 75.8409894,11.0707965 74.540636,11.0707965 C72.4819125,11.0707965 70.8361528,11.7292478 69.6033569,13.0451327 M78.319788,8.50619469 C79.7552562,9.51066372 80.7711572,10.8402876 81.3674912,12.4955752 L81.3674912,7.28495575 L86,7.28495575 L86,29.7150442 L81.3674912,29.7150442 L81.3674912,24.5044248 C80.7711572,26.1597124 79.7552562,27.4898451 78.319788,28.4938053 C76.8838118,29.4977655 75.1506846,30 73.1188825,30 C71.1678445,30 69.4270981,29.5389823 67.8966431,28.6159292 C66.3656802,27.693385 65.1674249,26.3632522 64.3003534,24.6265487 C63.4332818,22.8898451 63,20.840708 63,18.479646 C63,16.1460619 63.4332818,14.1106637 64.3003534,12.3734513 C65.1674249,10.6367478 66.3656802,9.30661504 67.8966431,8.3840708 C69.4270981,7.46152655 71.1678445,7 73.1188825,7 C75.1506846,7 76.8838118,7.50223451 78.319788,8.50619469" id="Fill-8" fill="#FFFFFF"></path>
                <g id="Group-12" transform="translate(89.000000, 7.000000)">
                    <mask id="mask-4" fill="white">
                        <use xlink:href="#path-3"></use>
                    </mask>
                    <g id="Clip-11"></g>
                    <path d="M8.0089,5.1001 C6.9954,5.7001 6.1954,6.5536 5.6084,7.6601 C5.0219,8.7666 4.7284,10.0401 4.7284,11.4801 C4.7284,12.9466 5.0219,14.2266 5.6084,15.3201 C6.1954,16.4136 6.9954,17.2601 8.0089,17.8601 C9.0219,18.4601 10.1689,18.7601 11.4489,18.7601 C13.4754,18.7601 15.1019,18.1136 16.3289,16.8201 C17.5549,15.5271 18.1689,13.7466 18.1689,11.4801 C18.1689,9.2401 17.5549,7.4666 16.3289,6.1601 C15.1019,4.8536 13.4754,4.2001 11.4489,4.2001 C10.1689,4.2001 9.0219,4.5001 8.0089,5.1001 M17.9889,1.5601 C19.4954,2.4666 20.6749,3.7736 21.5289,5.4801 C22.3819,7.1871 22.8089,9.1871 22.8089,11.4801 C22.8089,13.8001 22.3819,15.8136 21.5289,17.5201 C20.6749,19.2266 19.4954,20.5336 17.9889,21.4401 C16.4819,22.3471 14.7689,22.8001 12.8489,22.8001 C10.8489,22.8001 9.1419,22.3071 7.7284,21.3201 C6.3149,20.3336 5.3289,19.0271 4.7689,17.4001 L4.7689,33.0001 L0.2089,33.0001 L0.2089,0.4801 L4.7689,0.4801 L4.7689,5.6001 C5.3289,3.9741 6.3149,2.6671 7.7284,1.6801 C9.1419,0.6936 10.8489,0.2001 12.8489,0.2001 C14.7689,0.2001 16.4819,0.6536 17.9889,1.5601" id="Fill-10" fill="#FFFFFF" mask="url(#mask-4)"></path>
                </g>
                <g id="Group-15" transform="translate(114.000000, 7.000000)">
                    <mask id="mask-6" fill="white">
                        <use xlink:href="#path-5"></use>
                    </mask>
                    <g id="Clip-14"></g>
                    <path d="M8.38330213,5.1001 C7.34772766,5.7001 6.53070638,6.5536 5.9322383,7.6601 C5.33274894,8.7666 5.03351489,10.0401 5.03351489,11.4801 C5.03351489,12.9466 5.33274894,14.2266 5.9322383,15.3201 C6.53070638,16.4136 7.34772766,17.2601 8.38330213,17.8601 C9.41785532,18.4601 10.5887489,18.7601 11.8964936,18.7601 C13.9661106,18.7601 15.6277277,18.1136 16.8803234,16.8201 C18.1329191,15.5271 18.7589617,13.7466 18.7589617,11.4801 C18.7589617,9.2401 18.1329191,7.4666 16.8803234,6.1601 C15.6277277,4.8536 13.9661106,4.2001 11.8964936,4.2001 C10.5887489,4.2001 9.41785532,4.5001 8.38330213,5.1001 M18.5756426,1.5601 C20.1136851,2.4666 21.3193021,3.7736 22.1909617,5.4801 C23.0621106,7.1871 23.4987064,9.1871 23.4987064,11.4801 C23.4987064,13.8001 23.0621106,15.8136 22.1909617,17.5201 C21.3193021,19.2266 20.1136851,20.5336 18.5756426,21.4401 C17.0365787,22.3471 15.2876426,22.8001 13.3262809,22.8001 C11.2837277,22.8001 9.54091915,22.3071 8.09734468,21.3201 C6.65325957,20.3336 5.64628085,19.0271 5.0748766,17.4001 L5.0748766,33.0001 L0.416834043,33.0001 L0.416834043,0.4801 L5.0748766,0.4801 L5.0748766,5.6001 C5.64628085,3.9741 6.65325957,2.6671 8.09734468,1.6801 C9.54091915,0.6936 11.2837277,0.2001 13.3262809,0.2001 C15.2876426,0.2001 17.0365787,0.6536 18.5756426,1.5601" id="Fill-13" fill="#FFFFFF" mask="url(#mask-6)"></path>
                </g>
                <path d="M155.561237,13.6150442 C155.00412,12.624823 154.243305,11.8920796 153.279808,11.4168142 C152.315294,10.9425664 151.263188,10.7044248 150.122474,10.7044248 C148.302424,10.7044248 146.781811,11.2611062 145.559107,12.3734513 C144.336913,13.4868142 143.671327,15.1283628 143.562857,17.299115 L156.314414,17.299115 C156.368903,15.8336283 156.117335,14.6062832 155.561237,13.6150442 M160.836532,19.4159292 L143.562857,19.4159292 C143.644846,21.7230531 144.282424,23.4327876 145.477628,24.5451327 C146.672832,25.6579867 148.152705,26.2141593 149.918775,26.2141593 C151.466378,26.2141593 152.776672,25.8213274 153.850166,25.0336283 C154.922641,24.2469469 155.581098,23.2017699 155.826046,21.899115 L160.795792,21.899115 C160.496863,23.4734956 159.872526,24.8707965 158.92227,26.0920354 C157.970996,27.3132743 156.736071,28.2699115 155.214949,28.9619469 C153.693317,29.6539823 151.996505,30 150.122474,30 C147.949515,30 146.027615,29.5389823 144.357793,28.6159292 C142.687461,27.693385 141.376658,26.3637611 140.425893,24.6265487 C139.475128,22.890354 139,20.840708 139,18.479646 C139,16.1460619 139.475128,14.1106637 140.425893,12.3734513 C141.376658,10.6367478 142.687461,9.30712389 144.357793,8.3840708 C146.027615,7.4620354 147.949515,7 150.122474,7 C152.322423,7 154.243305,7.4549115 155.887155,8.36371681 C157.529478,9.27353982 158.792921,10.5212389 159.675957,12.1088496 C160.558482,13.6964602 161,15.4672566 161,17.4212389 C161,18.1814602 160.945001,18.8460177 160.836532,19.4159292" id="Fill-16" fill="#FFFFFF"></path>
                <path d="M169.603357,13.2730924 C168.370053,14.5717871 167.754417,16.3589357 167.754417,18.6345382 C167.754417,20.9101406 168.370053,22.6972892 169.603357,23.9959839 C170.835645,25.2946787 172.481405,25.9437751 174.541144,25.9437751 C175.840989,25.9437751 177.005212,25.6425703 178.035336,25.0401606 C179.064951,24.437751 179.877672,23.5878514 180.473498,22.4899598 C181.068816,21.3920683 181.367491,20.1069277 181.367491,18.6345382 C181.367491,17.188755 181.068816,15.9101406 180.473498,14.7991968 C179.877672,13.688253 179.064951,12.8313253 178.035336,12.2289157 C177.005212,11.626506 175.840989,11.3253012 174.541144,11.3253012 C172.481405,11.3253012 170.835645,11.9748996 169.603357,13.2730924 M178.319788,8.79518072 C179.755256,9.78614458 180.758458,11.0978916 181.326855,12.7309237 L181.326855,0 L186,0 L186,29.7188755 L181.326855,29.7188755 L181.326855,24.5783133 C180.758458,26.2113454 179.755256,27.5235944 178.319788,28.5140562 C176.883304,29.5045181 175.150177,30 173.118375,30 C171.167845,30 169.42659,29.5451807 167.897151,28.6345382 C166.366188,27.7243976 165.167425,26.4121486 164.300861,24.6987952 C163.433282,22.9854418 163,20.9638554 163,18.6345382 C163,16.3323293 163.433282,14.3242972 164.300861,12.6104418 C165.167425,10.8970884 166.366188,9.58483936 167.897151,8.6746988 C169.42659,7.76455823 171.167845,7.30923695 173.118375,7.30923695 C175.150177,7.30923695 176.883304,7.80471888 178.319788,8.79518072" id="Fill-18" fill="#FFFFFF"></path>
            </g>
        </g>
    </g>
</svg>