<svg width="172" height="26" viewBox="0 0 172 26" fill="none" xmlns="http://www.w3.org/2000/svg">
<path fill-rule="evenodd" clip-rule="evenodd" d="M0.625 13.0044H12.3895L6.12479 23.1094L14.9326 16.2079L14.932 16.2071H14.9327L14.9347 16.2042L22.3118 25.4958L28.5313 13.0054L34.6089 0.789307L25.4597 7.96993L28.5313 13.0054H27.8185H19.0347L14.9347 16.2042L14.9317 16.2002V16.2067L12.3895 13.0044H19.0357L25.4597 7.97179L20.912 0.5L12.3895 13.0044L6.25194 5.66563L0.625 13.0044ZM28.5324 13.0063L32.6074 19.7098L37.5935 13.0063H28.5324ZM50.0791 6.82137H52.3318L55.3275 12.5473L58.3251 6.82137H60.5759L56.3586 14.5023V19.3687H54.2803V14.5733L50.0791 6.82137ZM74.2337 6.62427C76.1161 6.62427 77.5728 7.18756 78.5992 8.31512L78.5971 8.31612C79.6245 9.44375 80.1391 11.0304 80.1391 13.0815C80.1391 15.1225 79.6235 16.7104 78.5921 17.844C77.5609 18.9765 76.1022 19.5419 74.2168 19.5419C72.3044 19.5419 70.8356 18.9796 69.8113 17.854C68.7852 16.7304 68.2744 15.1325 68.2744 13.0615C68.2744 10.9904 68.791 9.39958 69.8224 8.2891C70.8527 7.17854 72.3215 6.62427 74.2337 6.62427ZM74.2348 8.38516C72.9932 8.38516 72.0561 8.78135 71.4254 9.57583L71.4244 9.57666L71.4223 9.57875C70.7895 10.3752 70.4731 11.5417 70.4731 13.0806C70.4731 14.6254 70.7866 15.7969 71.4173 16.5944C72.0461 17.3906 72.9793 17.7908 74.2168 17.7908C75.4442 17.7908 76.3724 17.3956 77.0001 16.6054C77.627 15.8158 77.9393 14.6404 77.9393 13.0775C77.9393 11.5387 77.6289 10.3721 77.0111 9.57583C76.3905 8.78135 75.4644 8.38516 74.2348 8.38516ZM97.3674 14.7444V6.82237H99.4339V14.9396C99.4339 15.866 99.2336 16.6783 98.8331 17.3737C98.4325 18.0681 97.8519 18.6033 97.091 18.9785C96.3321 19.3537 95.426 19.5408 94.3675 19.5408C92.7976 19.5408 91.5761 19.1285 90.7051 18.3052C89.833 17.4808 89.3974 16.3481 89.3974 14.9054V6.82137H91.479V14.7623C91.479 15.7979 91.7223 16.5633 92.2059 17.0535C92.6915 17.5458 93.4345 17.7908 94.4407 17.7908C96.3911 17.7908 97.3674 16.7754 97.3674 14.7444ZM116.371 18.5462V19.3687L116.373 19.3706H109.452V6.82037H110.333V18.5462H116.371ZM126.088 18.5633H132.125V19.3677H125.205V6.82137H132.125V7.62877H126.09V12.3771H131.787V13.1806H126.088V18.5633ZM149.993 6.82137H150.85L150.849 6.82237V19.3687H149.956L142.457 8.23008H142.387C142.457 9.5577 142.492 10.5592 142.492 11.2335V19.3677H141.646V6.82137H142.527L150.019 17.944H150.073C150.019 16.9146 149.993 15.9371 149.993 15.0085V6.82137ZM164.51 6.82137C166.528 6.82137 168.064 7.34462 169.121 8.39216L169.12 8.39116C170.175 9.43875 170.702 10.9654 170.702 12.9765C170.702 15.0815 170.145 16.6744 169.03 17.7529C167.914 18.8315 166.279 19.3677 164.12 19.3677H161.086V6.82137H164.51ZM161.97 18.5973H164.066H164.069V18.5944C167.851 18.5944 169.741 16.7323 169.741 13.0075C169.741 11.2106 169.281 9.85895 168.36 8.9525C167.439 8.04498 166.086 7.59175 164.301 7.59175H161.97V18.5973Z" fill="black"/>
</svg>
